<svg width="100" height="44" viewBox="0 0 100 44" fill="none" xmlns="http://www.w3.org/2000/svg">
<path d="M86.3263 11.7605C83.2584 7.05605 79.2319 3.04895 74.5089 0L65.5982 13.8645L64.9023 13.7078C55.024 11.4944 44.7767 11.4944 34.8984 13.7078L34.2026 13.8645L25.2663 0C20.5495 3.05081 16.5289 7.05778 13.4659 11.7605C6.40945 22.6023 6.54948 33.9732 7.4151 40.2853H92.3602C93.2385 33.9732 93.3658 22.6023 86.3263 11.7605ZM29.7939 32.4746C28.0966 32.4746 26.7218 30.4383 26.7218 27.9321C26.7218 25.4259 28.0966 23.3939 29.7939 23.3939C31.4911 23.3939 32.8575 25.4259 32.8575 27.9406C32.8575 30.4553 31.4827 32.4746 29.7939 32.4746ZM53.4583 30.4383L53.3522 30.4807C52.681 30.6599 52.0588 30.9873 51.5315 31.4387C51.0041 31.89 50.5852 32.4538 50.3056 33.0884C50.2928 33.1117 50.2815 33.1358 50.2716 33.1604C50.2351 33.2252 50.1822 33.2792 50.1182 33.3171C50.0541 33.355 49.9812 33.3754 49.9067 33.3763C49.8323 33.3754 49.7593 33.355 49.6953 33.3171C49.6312 33.2792 49.5783 33.2252 49.5418 33.1604C49.5347 33.1347 49.5232 33.1103 49.5079 33.0884C49.2257 32.451 48.8028 31.8854 48.2708 31.4339C47.7389 30.9823 47.1116 30.6565 46.4358 30.4807C46.3945 30.4654 46.3519 30.4541 46.3085 30.4468C46.2363 30.4125 46.1752 30.3585 46.1325 30.2911C46.0897 30.2237 46.0668 30.1456 46.0666 30.0658C46.0657 29.9923 46.0864 29.9202 46.126 29.8583C46.1403 29.8279 46.1605 29.8005 46.1854 29.7779C46.6251 29.2062 47.1917 28.7441 47.8408 28.4279C48.4898 28.1118 49.2035 27.9502 49.9258 27.956C50.648 27.9617 51.3591 28.1346 52.003 28.4611C52.6469 28.7875 53.206 29.2586 53.6365 29.8372C53.6792 29.906 53.7026 29.9849 53.7044 30.0658C53.7022 30.1446 53.678 30.2212 53.6345 30.287C53.5911 30.3528 53.53 30.4052 53.4583 30.4383ZM69.9814 32.4746C68.2841 32.4746 66.9178 30.4383 66.9178 27.9321C66.9178 25.4259 68.2926 23.3939 69.9814 23.3939C71.6702 23.3939 73.0535 25.4217 73.0535 27.9321C73.0535 30.4426 71.6787 32.4746 69.9814 32.4746Z" fill="#fff"/>
<path d="M96.9406 43.3333C98.6279 43.3333 99.9958 41.9687 99.9958 40.2853C99.9958 38.6019 98.6279 37.2372 96.9406 37.2372C95.2533 37.2372 93.8855 38.6019 93.8855 40.2853C93.8855 41.9687 95.2533 43.3333 96.9406 43.3333Z" fill="#fff"/>
<path d="M3.05512 43.3333C4.74241 43.3333 6.11024 41.9687 6.11024 40.2853C6.11024 38.6019 4.74241 37.2372 3.05512 37.2372C1.36782 37.2372 0 38.6019 0 40.2853C0 41.9687 1.36782 43.3333 3.05512 43.3333Z" fill="#fff"/>
</svg>
